<svg width="100" height="21" viewBox="0 0 100 21" fill="none" xmlns="http://www.w3.org/2000/svg">
<path d="M3.18 3.3V6.8H7.88V9.02H3.18V12.72H8.48V15H0.38V1.02H8.48V3.3H3.18ZM10.3045 9.42C10.3045 8.3 10.5245 7.30667 10.9645 6.44C11.4179 5.57333 12.0312 4.90667 12.8045 4.44C13.5779 3.97333 14.4379 3.74 15.3845 3.74C16.1045 3.74 16.7912 3.9 17.4445 4.22C18.0979 4.52667 18.6179 4.94 19.0045 5.46V0.2H21.8445V15H19.0045V13.36C18.6579 13.9067 18.1712 14.3467 17.5445 14.68C16.9179 15.0133 16.1912 15.18 15.3645 15.18C14.4312 15.18 13.5779 14.94 12.8045 14.46C12.0312 13.98 11.4179 13.3067 10.9645 12.44C10.5245 11.56 10.3045 10.5533 10.3045 9.42ZM19.0245 9.46C19.0245 8.78 18.8912 8.2 18.6245 7.72C18.3579 7.22667 17.9979 6.85333 17.5445 6.6C17.0912 6.33333 16.6045 6.2 16.0845 6.2C15.5645 6.2 15.0845 6.32667 14.6445 6.58C14.2045 6.83333 13.8445 7.20667 13.5645 7.7C13.2979 8.18 13.1645 8.75333 13.1645 9.42C13.1645 10.0867 13.2979 10.6733 13.5645 11.18C13.8445 11.6733 14.2045 12.0533 14.6445 12.32C15.0979 12.5867 15.5779 12.72 16.0845 12.72C16.6045 12.72 17.0912 12.5933 17.5445 12.34C17.9979 12.0733 18.3579 11.7 18.6245 11.22C18.8912 10.7267 19.0245 10.14 19.0245 9.46ZM35.0392 3.92V15H32.2192V13.6C31.8592 14.08 31.3859 14.46 30.7992 14.74C30.2259 15.0067 29.5992 15.14 28.9192 15.14C28.0526 15.14 27.2859 14.96 26.6192 14.6C25.9526 14.2267 25.4259 13.6867 25.0392 12.98C24.6659 12.26 24.4792 11.4067 24.4792 10.42V3.92H27.2792V10.02C27.2792 10.9 27.4992 11.58 27.9392 12.06C28.3792 12.5267 28.9792 12.76 29.7392 12.76C30.5126 12.76 31.1192 12.5267 31.5592 12.06C31.9992 11.58 32.2192 10.9 32.2192 10.02V3.92H35.0392Z" fill="#13A3AD"/>
<path d="M42.6219 15.14C41.6485 15.14 40.7685 14.9733 39.9819 14.64C39.2085 14.3067 38.5952 13.8267 38.1419 13.2C37.6885 12.5733 37.4552 11.8333 37.4419 10.98H40.4419C40.4819 11.5533 40.6819 12.0067 41.0419 12.34C41.4152 12.6733 41.9219 12.84 42.5619 12.84C43.2152 12.84 43.7285 12.6867 44.1019 12.38C44.4752 12.06 44.6619 11.6467 44.6619 11.14C44.6619 10.7267 44.5352 10.3867 44.2819 10.12C44.0285 9.85333 43.7085 9.64667 43.3219 9.5C42.9485 9.34 42.4285 9.16667 41.7619 8.98C40.8552 8.71333 40.1152 8.45333 39.5419 8.2C38.9819 7.93333 38.4952 7.54 38.0819 7.02C37.6819 6.48667 37.4819 5.78 37.4819 4.9C37.4819 4.07333 37.6885 3.35333 38.1019 2.74C38.5152 2.12667 39.0952 1.66 39.8419 1.34C40.5885 1.00667 41.4419 0.84 42.4019 0.84C43.8419 0.84 45.0085 1.19333 45.9019 1.9C46.8085 2.59333 47.3085 3.56667 47.4019 4.82H44.3219C44.2952 4.34 44.0885 3.94667 43.7019 3.64C43.3285 3.32 42.8285 3.16 42.2019 3.16C41.6552 3.16 41.2152 3.3 40.8819 3.58C40.5619 3.86 40.4019 4.26667 40.4019 4.8C40.4019 5.17333 40.5219 5.48667 40.7619 5.74C41.0152 5.98 41.3219 6.18 41.6819 6.34C42.0552 6.48667 42.5752 6.66 43.2419 6.86C44.1485 7.12667 44.8885 7.39333 45.4619 7.66C46.0352 7.92667 46.5285 8.32667 46.9419 8.86C47.3552 9.39333 47.5619 10.0933 47.5619 10.96C47.5619 11.7067 47.3685 12.4 46.9819 13.04C46.5952 13.68 46.0285 14.1933 45.2819 14.58C44.5352 14.9533 43.6485 15.14 42.6219 15.14ZM52.7894 5.52C53.1494 5.01333 53.6427 4.59333 54.2694 4.26C54.9094 3.91333 55.636 3.74 56.4494 3.74C57.396 3.74 58.2494 3.97333 59.0094 4.44C59.7827 4.90667 60.3894 5.57333 60.8294 6.44C61.2827 7.29333 61.5094 8.28667 61.5094 9.42C61.5094 10.5533 61.2827 11.56 60.8294 12.44C60.3894 13.3067 59.7827 13.98 59.0094 14.46C58.2494 14.94 57.396 15.18 56.4494 15.18C55.636 15.18 54.916 15.0133 54.2894 14.68C53.676 14.3467 53.176 13.9267 52.7894 13.42V20.28H49.9894V3.92H52.7894V5.52ZM58.6494 9.42C58.6494 8.75333 58.5094 8.18 58.2294 7.7C57.9627 7.20667 57.6027 6.83333 57.1494 6.58C56.7094 6.32667 56.2294 6.2 55.7094 6.2C55.2027 6.2 54.7227 6.33333 54.2694 6.6C53.8294 6.85333 53.4694 7.22667 53.1894 7.72C52.9227 8.21333 52.7894 8.79333 52.7894 9.46C52.7894 10.1267 52.9227 10.7067 53.1894 11.2C53.4694 11.6933 53.8294 12.0733 54.2694 12.34C54.7227 12.5933 55.2027 12.72 55.7094 12.72C56.2294 12.72 56.7094 12.5867 57.1494 12.32C57.6027 12.0533 57.9627 11.6733 58.2294 11.18C58.5094 10.6867 58.6494 10.1 58.6494 9.42ZM62.8241 9.42C62.8241 8.3 63.0441 7.30667 63.4841 6.44C63.9374 5.57333 64.5441 4.90667 65.3041 4.44C66.0774 3.97333 66.9374 3.74 67.8841 3.74C68.7107 3.74 69.4307 3.90667 70.0441 4.24C70.6707 4.57333 71.1707 4.99333 71.5441 5.5V3.92H74.3641V15H71.5441V13.38C71.1841 13.9 70.6841 14.3333 70.0441 14.68C69.4174 15.0133 68.6907 15.18 67.8641 15.18C66.9307 15.18 66.0774 14.94 65.3041 14.46C64.5441 13.98 63.9374 13.3067 63.4841 12.44C63.0441 11.56 62.8241 10.5533 62.8241 9.42ZM71.5441 9.46C71.5441 8.78 71.4107 8.2 71.1441 7.72C70.8774 7.22667 70.5174 6.85333 70.0641 6.6C69.6107 6.33333 69.1241 6.2 68.6041 6.2C68.0841 6.2 67.6041 6.32667 67.1641 6.58C66.7241 6.83333 66.3641 7.20667 66.0841 7.7C65.8174 8.18 65.6841 8.75333 65.6841 9.42C65.6841 10.0867 65.8174 10.6733 66.0841 11.18C66.3641 11.6733 66.7241 12.0533 67.1641 12.32C67.6174 12.5867 68.0974 12.72 68.6041 12.72C69.1241 12.72 69.6107 12.5933 70.0641 12.34C70.5174 12.0733 70.8774 11.7 71.1441 11.22C71.4107 10.7267 71.5441 10.14 71.5441 9.46ZM76.3787 9.46C76.3787 8.31333 76.6121 7.31333 77.0788 6.46C77.5454 5.59333 78.1921 4.92667 79.0188 4.46C79.8454 3.98 80.7921 3.74 81.8588 3.74C83.2321 3.74 84.3654 4.08667 85.2588 4.78C86.1654 5.46 86.7721 6.42 87.0788 7.66H84.0588C83.8988 7.18 83.6254 6.80667 83.2388 6.54C82.8654 6.26 82.3988 6.12 81.8388 6.12C81.0388 6.12 80.4054 6.41333 79.9388 7C79.4721 7.57333 79.2388 8.39333 79.2388 9.46C79.2388 10.5133 79.4721 11.3333 79.9388 11.92C80.4054 12.4933 81.0388 12.78 81.8388 12.78C82.9721 12.78 83.7121 12.2733 84.0588 11.26H87.0788C86.7721 12.46 86.1654 13.4133 85.2588 14.12C84.3521 14.8267 83.2188 15.18 81.8588 15.18C80.7921 15.18 79.8454 14.9467 79.0188 14.48C78.1921 14 77.5454 13.3333 77.0788 12.48C76.6121 11.6133 76.3787 10.6067 76.3787 9.46ZM99.43 9.22C99.43 9.62 99.4033 9.98 99.35 10.3H91.25C91.3167 11.1 91.5967 11.7267 92.09 12.18C92.5833 12.6333 93.19 12.86 93.91 12.86C94.95 12.86 95.69 12.4133 96.13 11.52H99.15C98.83 12.5867 98.2167 13.4667 97.31 14.16C96.4033 14.84 95.29 15.18 93.97 15.18C92.9033 15.18 91.9433 14.9467 91.09 14.48C90.25 14 89.59 13.3267 89.11 12.46C88.6433 11.5933 88.41 10.5933 88.41 9.46C88.41 8.31333 88.6433 7.30667 89.11 6.44C89.5767 5.57333 90.23 4.90667 91.07 4.44C91.91 3.97333 92.8767 3.74 93.97 3.74C95.0233 3.74 95.9633 3.96667 96.79 4.42C97.63 4.87333 98.2767 5.52 98.73 6.36C99.1967 7.18667 99.43 8.14 99.43 9.22ZM96.53 8.42C96.5167 7.7 96.2567 7.12667 95.75 6.7C95.2433 6.26 94.6233 6.04 93.89 6.04C93.1967 6.04 92.61 6.25333 92.13 6.68C91.6633 7.09333 91.3767 7.67333 91.27 8.42H96.53Z" fill="#4B0C69"/>
<path d="M3.18 3.3V2.3H2.18V3.3H3.18ZM3.18 6.8H2.18V7.8H3.18V6.8ZM7.88 6.8H8.88V5.8H7.88V6.8ZM7.88 9.02V10.02H8.88V9.02H7.88ZM3.18 9.02V8.02H2.18V9.02H3.18ZM3.18 12.72H2.18V13.72H3.18V12.72ZM8.48 12.72H9.48V11.72H8.48V12.72ZM8.48 15V16H9.48V15H8.48ZM0.38 15H-0.62V16H0.38V15ZM0.38 1.02V0.0199988H-0.62V1.02H0.38ZM8.48 1.02H9.48V0.0199988H8.48V1.02ZM8.48 3.3V4.3H9.48V3.3H8.48ZM2.18 3.3V6.8H4.18V3.3H2.18ZM3.18 7.8H7.88V5.8H3.18V7.8ZM6.88 6.8V9.02H8.88V6.8H6.88ZM7.88 8.02H3.18V10.02H7.88V8.02ZM2.18 9.02V12.72H4.18V9.02H2.18ZM3.18 13.72H8.48V11.72H3.18V13.72ZM7.48 12.72V15H9.48V12.72H7.48ZM8.48 14H0.38V16H8.48V14ZM1.38 15V1.02H-0.62V15H1.38ZM0.38 2.02H8.48V0.0199988H0.38V2.02ZM7.48 1.02V3.3H9.48V1.02H7.48ZM8.48 2.3H3.18V4.3H8.48V2.3ZM10.9645 6.44L10.0784 5.97647L10.0729 5.98731L10.9645 6.44ZM12.8045 4.44L13.3212 5.29619L13.3212 5.29619L12.8045 4.44ZM17.4445 4.22L17.0047 5.11806L17.0121 5.12171L17.0196 5.12524L17.4445 4.22ZM19.0045 5.46L18.2021 6.0567L20.0045 8.4807V5.46H19.0045ZM19.0045 0.2V-0.8H18.0045V0.2H19.0045ZM21.8445 0.2H22.8445V-0.8H21.8445V0.2ZM21.8445 15V16H22.8445V15H21.8445ZM19.0045 15H18.0045V16H19.0045V15ZM19.0045 13.36H20.0045V9.91581L18.16 12.8245L19.0045 13.36ZM17.5445 14.68L17.0749 13.7971L17.0749 13.7971L17.5445 14.68ZM12.8045 14.46L13.3319 13.6104L13.3319 13.6104L12.8045 14.46ZM10.9645 12.44L10.0701 12.8872L10.0742 12.8954L10.0784 12.9035L10.9645 12.44ZM18.6245 7.72L17.7448 8.19555L17.7504 8.20564L18.6245 7.72ZM17.5445 6.6L17.0375 7.46193L17.047 7.46754L17.0567 7.47294L17.5445 6.6ZM14.6445 6.58L14.1456 5.71338L14.1456 5.71338L14.6445 6.58ZM13.5645 7.7L12.6948 7.20637L12.6904 7.21436L13.5645 7.7ZM13.5645 11.18L12.6796 11.6457L12.687 11.6598L12.6948 11.6736L13.5645 11.18ZM14.6445 12.32L14.1262 13.1753L14.1375 13.1819L14.6445 12.32ZM17.5445 12.34L18.0324 13.2129L18.042 13.2075L18.0516 13.2019L17.5445 12.34ZM18.6245 11.22L19.4987 11.7057L19.5042 11.6955L18.6245 11.22ZM11.3045 9.42C11.3045 8.43328 11.4976 7.59912 11.8562 6.89269L10.0729 5.98731C9.55151 7.01422 9.30453 8.16672 9.30453 9.42H11.3045ZM11.8506 6.9035C12.2264 6.18515 12.7176 5.66044 13.3212 5.29619L12.2879 3.58381C11.3448 4.15289 10.6093 4.96152 10.0784 5.9765L11.8506 6.9035ZM13.3212 5.29619C13.931 4.92823 14.6108 4.74 15.3845 4.74V2.74C14.2649 2.74 13.2248 3.01844 12.2879 3.58381L13.3212 5.29619ZM15.3845 4.74C15.9504 4.74 16.4868 4.86441 17.0047 5.11806L17.8844 3.32194C17.0956 2.93559 16.2586 2.74 15.3845 2.74V4.74ZM17.0196 5.12524C17.5409 5.3699 17.9247 5.68365 18.2021 6.0567L19.807 4.8633C19.3111 4.19635 18.6549 3.68343 17.8694 3.31476L17.0196 5.12524ZM20.0045 5.46V0.2H18.0045V5.46H20.0045ZM19.0045 1.2H21.8445V-0.8H19.0045V1.2ZM20.8445 0.2V15H22.8445V0.2H20.8445ZM21.8445 14H19.0045V16H21.8445V14ZM20.0045 15V13.36H18.0045V15H20.0045ZM18.16 12.8245C17.9149 13.211 17.5638 13.5371 17.0749 13.7971L18.0141 15.5629C18.7786 15.1563 19.4008 14.6023 19.849 13.8955L18.16 12.8245ZM17.0749 13.7971C16.615 14.0418 16.0545 14.18 15.3645 14.18V16.18C16.3279 16.18 17.2208 15.9849 18.0141 15.5629L17.0749 13.7971ZM15.3645 14.18C14.6126 14.18 13.9427 13.9895 13.3319 13.6104L12.2772 15.3096C13.213 15.8905 14.2498 16.18 15.3645 16.18V14.18ZM13.3319 13.6104C12.7218 13.2317 12.2275 12.6969 11.8506 11.9765L10.0784 12.9035C10.6083 13.9164 11.3406 14.7283 12.2772 15.3096L13.3319 13.6104ZM11.859 11.9928C11.4982 11.2713 11.3045 10.4217 11.3045 9.42H9.30453C9.30453 10.6849 9.55083 11.8487 10.0701 12.8872L11.859 11.9928ZM20.0245 9.46C20.0245 8.65008 19.8654 7.89436 19.4987 7.23436L17.7504 8.20564C17.917 8.50564 18.0245 8.90992 18.0245 9.46H20.0245ZM19.5042 7.24448C19.1548 6.59806 18.6647 6.0804 18.0324 5.72706L17.0567 7.47294C17.3311 7.62627 17.5609 7.85527 17.7448 8.19552L19.5042 7.24448ZM18.0516 5.73807C17.4464 5.38209 16.785 5.2 16.0845 5.2V7.2C16.4241 7.2 16.736 7.28458 17.0375 7.46193L18.0516 5.73807ZM16.0845 5.2C15.3938 5.2 14.7411 5.37047 14.1456 5.71338L15.1435 7.44662C15.4279 7.28286 15.7352 7.2 16.0845 7.2V5.2ZM14.1456 5.71338C13.5333 6.06587 13.0523 6.57652 12.6948 7.20639L14.4342 8.19361C14.6367 7.83682 14.8757 7.6008 15.1435 7.44662L14.1456 5.71338ZM12.6904 7.21436C12.3252 7.87162 12.1645 8.61956 12.1645 9.42H14.1645C14.1645 8.88711 14.2705 8.48838 14.4387 8.18564L12.6904 7.21436ZM12.1645 9.42C12.1645 10.2222 12.3258 10.9735 12.6796 11.6457L14.4494 10.7143C14.2699 10.3731 14.1645 9.95113 14.1645 9.42H12.1645ZM12.6948 11.6736C13.0503 12.2999 13.5255 12.8111 14.1262 13.1752L15.1628 11.4648C14.8835 11.2955 14.6387 11.0468 14.4342 10.6864L12.6948 11.6736ZM14.1375 13.1819C14.7384 13.5354 15.3926 13.72 16.0845 13.72V11.72C15.7631 11.72 15.4573 11.6379 15.1516 11.4581L14.1375 13.1819ZM16.0845 13.72C16.7751 13.72 17.4297 13.5497 18.0324 13.2129L17.0567 11.4671C16.7527 11.637 16.434 11.72 16.0845 11.72V13.72ZM18.0516 13.2019C18.6655 12.8408 19.1494 12.3344 19.4987 11.7056L17.7504 10.7344C17.5664 11.0656 17.3302 11.3059 17.0375 11.4781L18.0516 13.2019ZM19.5042 11.6955C19.865 11.0281 20.0245 10.271 20.0245 9.46H18.0245C18.0245 10.009 17.9174 10.4252 17.7448 10.7445L19.5042 11.6955ZM35.0392 3.92H36.0392V2.92H35.0392V3.92ZM35.0392 15V16H36.0392V15H35.0392ZM32.2192 15H31.2192V16H32.2192V15ZM32.2192 13.6H33.2192V10.6L31.4192 13L32.2192 13.6ZM30.7992 14.74L31.221 15.6468L31.2299 15.6425L30.7992 14.74ZM26.6192 14.6L26.1306 15.4725L26.1373 15.4763L26.1441 15.4799L26.6192 14.6ZM25.0392 12.98L24.1515 13.4403L24.1566 13.4502L24.162 13.46L25.0392 12.98ZM24.4792 3.92V2.92H23.4792V3.92H24.4792ZM27.2792 3.92H28.2792V2.92H27.2792V3.92ZM27.9392 12.06L27.202 12.7358L27.2116 12.746L27.9392 12.06ZM31.5592 12.06L32.2869 12.7461L32.2964 12.7357L31.5592 12.06ZM32.2192 3.92V2.92H31.2192V3.92H32.2192ZM34.0392 3.92V15H36.0392V3.92H34.0392ZM35.0392 14H32.2192V16H35.0392V14ZM33.2192 15V13.6H31.2192V15H33.2192ZM31.4192 13C31.164 13.3402 30.8219 13.6211 30.3685 13.8375L31.2299 15.6425C31.9499 15.2989 32.5544 14.8198 33.0192 14.2L31.4192 13ZM30.3775 13.8333C29.946 14.034 29.4647 14.14 28.9192 14.14V16.14C29.7337 16.14 30.5057 15.9794 31.2209 15.6467L30.3775 13.8333ZM28.9192 14.14C28.1943 14.14 27.5952 13.9906 27.0944 13.7201L26.1441 15.4799C26.9765 15.9294 27.9108 16.14 28.9192 16.14V14.14ZM27.1078 13.7275C26.6141 13.451 26.2181 13.0513 25.9165 12.5L24.162 13.46C24.6336 14.322 25.2911 15.0023 26.1306 15.4725L27.1078 13.7275ZM25.927 12.5197C25.6417 11.9695 25.4792 11.2807 25.4792 10.42H23.4792C23.4792 11.5326 23.6901 12.5505 24.1515 13.4403L25.927 12.5197ZM25.4792 10.42V3.92H23.4792V10.42H25.4792ZM24.4792 4.92H27.2792V2.92H24.4792V4.92ZM26.2792 3.92V10.02H28.2792V3.92H26.2792ZM26.2792 10.02C26.2792 11.061 26.5411 12.0147 27.2021 12.7357L28.6764 11.3843C28.4574 11.1453 28.2792 10.739 28.2792 10.02H26.2792ZM27.2116 12.746C27.8754 13.45 28.759 13.76 29.7392 13.76V11.76C29.1994 11.76 28.883 11.6033 28.6668 11.374L27.2116 12.746ZM29.7392 13.76C30.7268 13.76 31.6197 13.4536 32.2868 12.746L30.8316 11.374C30.6188 11.5997 30.2983 11.76 29.7392 11.76V13.76ZM32.2964 12.7357C32.9574 12.0147 33.2192 11.061 33.2192 10.02H31.2192C31.2192 10.739 31.0411 11.1453 30.8221 11.3843L32.2964 12.7357ZM33.2192 10.02V3.92H31.2192V10.02H33.2192ZM32.2192 4.92H35.0392V2.92H32.2192V4.92ZM39.9819 14.64L39.586 15.5583L39.5917 15.5608L39.9819 14.64ZM38.1419 13.2L37.3317 13.7861L37.3317 13.7861L38.1419 13.2ZM37.4419 10.98V9.98H36.4261L36.442 10.9956L37.4419 10.98ZM40.4419 10.98L41.4395 10.9104L41.3745 9.98H40.4419V10.98ZM41.0419 12.34L40.3625 13.0738L40.3691 13.0799L40.3759 13.0859L41.0419 12.34ZM44.1019 12.38L44.7366 13.1527L44.7447 13.1461L44.7527 13.1393L44.1019 12.38ZM44.2819 10.12L43.5569 10.8087L43.5569 10.8087L44.2819 10.12ZM43.3219 9.5L42.928 10.4191L42.9474 10.4275L42.9672 10.435L43.3219 9.5ZM41.7619 8.98L41.4797 9.93945L41.4922 9.94296L41.7619 8.98ZM39.5419 8.2L39.1119 9.10286L39.1247 9.10896L39.1377 9.11469L39.5419 8.2ZM38.0819 7.02L37.2819 7.62L37.2903 7.63124L37.2991 7.64224L38.0819 7.02ZM38.1019 2.74L38.9311 3.29885L38.9311 3.29885L38.1019 2.74ZM39.8419 1.34L40.2358 2.25914L40.2427 2.25619L40.2495 2.25314L39.8419 1.34ZM45.9019 1.9L45.2815 2.68428L45.2879 2.68937L45.2944 2.69436L45.9019 1.9ZM47.4019 4.82V5.82H48.4791L48.3991 4.74574L47.4019 4.82ZM44.3219 4.82L43.3234 4.87547L43.3759 5.82H44.3219V4.82ZM43.7019 3.64L43.0511 4.39926L43.0656 4.41166L43.0805 4.4235L43.7019 3.64ZM40.8819 3.58L40.2387 2.81429L40.231 2.82078L40.2234 2.82742L40.8819 3.58ZM40.7619 5.74L40.0359 6.42774L40.0545 6.44736L40.0741 6.46595L40.7619 5.74ZM41.6819 6.34L41.2757 7.25381L41.2958 7.26273L41.3162 7.27075L41.6819 6.34ZM43.2419 6.86L42.9545 7.81784L42.9597 7.81937L43.2419 6.86ZM46.9419 8.86L46.1515 9.47257L46.1515 9.47257L46.9419 8.86ZM46.9819 13.04L46.126 12.5229L46.126 12.5229L46.9819 13.04ZM45.2819 14.58L45.7291 15.4744L45.7354 15.4713L45.7417 15.468L45.2819 14.58ZM42.6219 14.14C41.764 14.14 41.0192 13.9935 40.372 13.7192L39.5917 15.5608C40.5178 15.9532 41.5331 16.14 42.6219 16.14V14.14ZM40.3777 13.7217C39.7547 13.4532 39.2905 13.0816 38.9521 12.6139L37.3317 13.7861C37.8999 14.5717 38.6623 15.1602 39.586 15.5583L40.3777 13.7217ZM38.9521 12.6139C38.6314 12.1705 38.4522 11.6348 38.4418 10.9644L36.442 10.9956C36.4582 12.0319 36.7457 12.9761 37.3317 13.7861L38.9521 12.6139ZM37.4419 11.98H40.4419V9.98H37.4419V11.98ZM39.4443 11.0496C39.4988 11.8303 39.7842 12.5383 40.3625 13.0738L41.7213 11.6062C41.5796 11.475 41.465 11.2764 41.4395 10.9104L39.4443 11.0496ZM40.3759 13.0859C40.979 13.6245 41.7468 13.84 42.5619 13.84V11.84C42.097 11.84 41.8514 11.7222 41.7079 11.5941L40.3759 13.0859ZM42.5619 13.84C43.3652 13.84 44.1302 13.6509 44.7366 13.1527L43.4671 11.6073C43.3269 11.7225 43.0652 11.84 42.5619 11.84V13.84ZM44.7527 13.1393C45.3553 12.6227 45.6619 11.9284 45.6619 11.14H43.6619C43.6619 11.3649 43.5952 11.4973 43.4511 11.6207L44.7527 13.1393ZM45.6619 11.14C45.6619 10.5047 45.4591 9.90727 45.0069 9.43125L43.5569 10.8087C43.6113 10.8661 43.6619 10.9486 43.6619 11.14H45.6619ZM45.0069 9.43125C44.6379 9.0429 44.186 8.75825 43.6765 8.565L42.9672 10.435C43.2311 10.5351 43.4191 10.6638 43.5569 10.8087L45.0069 9.43125ZM43.7158 8.58085C43.2837 8.39566 42.7155 8.20856 42.0315 8.01704L41.4922 9.94296C42.1416 10.1248 42.6134 10.2843 42.928 10.4191L43.7158 8.58085ZM42.044 8.02063C41.1604 7.76073 40.4652 7.51473 39.946 7.28531L39.1377 9.11469C39.7652 9.39194 40.5501 9.66594 41.4797 9.93937L42.044 8.02063ZM39.9718 7.29714C39.5589 7.10051 39.1902 6.80721 38.8647 6.39776L37.2991 7.64224C37.8003 8.27279 38.4049 8.76615 39.1119 9.10286L39.9718 7.29714ZM38.8819 6.42C38.6478 6.10784 38.4819 5.63263 38.4819 4.9H36.4819C36.4819 5.92737 36.716 6.86549 37.2819 7.62L38.8819 6.42ZM38.4819 4.9C38.4819 4.24813 38.642 3.72797 38.9311 3.29885L37.2726 2.18115C36.7351 2.97869 36.4819 3.89853 36.4819 4.9H38.4819ZM38.9311 3.29885C39.2265 2.86051 39.6478 2.51114 40.2358 2.25914L39.448 0.420854C38.5426 0.808863 37.8039 1.39282 37.2726 2.18115L38.9311 3.29885ZM40.2495 2.25314C40.8475 1.98617 41.5582 1.84 42.4019 1.84V-0.16C41.3256 -0.16 40.3295 0.0271645 39.4342 0.426861L40.2495 2.25314ZM42.4019 1.84C43.6773 1.84 44.607 2.15076 45.2815 2.68428L46.5223 1.11572C45.4101 0.235906 44.0065 -0.16 42.4019 -0.16V1.84ZM45.2944 2.69436C45.9499 3.19559 46.3301 3.89337 46.4046 4.89426L48.3991 4.74574C48.287 3.23997 47.6672 1.99108 46.5093 1.10564L45.2944 2.69436ZM47.4019 3.82H44.3219V5.82H47.4019V3.82ZM45.3203 4.76453C45.2773 3.99057 44.9271 3.33541 44.3233 2.8565L43.0805 4.4235C43.25 4.55792 43.3131 4.68943 43.3234 4.87547L45.3203 4.76453ZM44.3527 2.88074C43.7529 2.36662 43 2.16 42.2019 2.16V4.16C42.6571 4.16 42.9042 4.27338 43.0511 4.39926L44.3527 2.88074ZM42.2019 2.16C41.4818 2.16 40.7945 2.34743 40.2387 2.81429L41.5251 4.3457C41.6359 4.25257 41.8286 4.16 42.2019 4.16V2.16ZM40.2234 2.82742C39.6332 3.34382 39.4019 4.05737 39.4019 4.8H41.4019C41.4019 4.47596 41.4905 4.37618 41.5404 4.33258L40.2234 2.82742ZM39.4019 4.8C39.4019 5.40958 39.6069 5.9749 40.0359 6.42774L41.4878 5.05225C41.4368 4.99844 41.4019 4.93708 41.4019 4.8H39.4019ZM40.0741 6.46595C40.4199 6.7935 40.8251 7.05354 41.2757 7.25381L42.088 5.42619C41.8186 5.30646 41.6105 5.1665 41.4496 5.01405L40.0741 6.46595ZM41.3162 7.27075C41.7273 7.43223 42.2776 7.61473 42.9545 7.81783L43.5292 5.90217C42.8729 5.70526 42.3832 5.5411 42.0475 5.40925L41.3162 7.27075ZM42.9597 7.81937C43.8395 8.07813 44.5282 8.32858 45.0401 8.56672L45.8836 6.75328C45.2489 6.45808 44.4576 6.1752 43.524 5.90063L42.9597 7.81937ZM45.0401 8.56672C45.4592 8.76165 45.8291 9.0566 46.1515 9.47257L47.7323 8.24743C47.228 7.59673 46.6112 7.09168 45.8836 6.75328L45.0401 8.56672ZM46.1515 9.47257C46.3945 9.78615 46.5619 10.2514 46.5619 10.96H48.5619C48.5619 9.93526 48.3159 9.00052 47.7323 8.24743L46.1515 9.47257ZM46.5619 10.96C46.5619 11.5241 46.4185 12.0387 46.126 12.5229L47.8378 13.5571C48.3186 12.7613 48.5619 11.8892 48.5619 10.96H46.5619ZM46.126 12.5229C45.8461 12.9861 45.4259 13.3793 44.822 13.692L45.7417 15.468C46.6312 15.0074 47.3443 14.3739 47.8378 13.5571L46.126 12.5229ZM44.8347 13.6856C44.2551 13.9753 43.5283 14.14 42.6219 14.14V16.14C43.7687 16.14 44.8153 15.9313 45.7291 15.4744L44.8347 13.6856ZM52.7894 5.52H51.7894V8.6539L53.6046 6.09921L52.7894 5.52ZM54.2694 4.26L54.739 5.1429L54.7457 5.13929L54.2694 4.26ZM59.0094 4.44L58.4861 5.2922L58.4927 5.29619L59.0094 4.44ZM60.8294 6.44L59.9377 6.89269L59.9419 6.90096L59.9463 6.90915L60.8294 6.44ZM60.8294 12.44L59.9404 11.982L59.9377 11.9873L60.8294 12.44ZM59.0094 14.46L58.482 13.6103L58.4754 13.6145L59.0094 14.46ZM54.2894 14.68L53.8118 15.5587L53.8198 15.5629L54.2894 14.68ZM52.7894 13.42L53.5843 12.8133L51.7894 10.4613V13.42H52.7894ZM52.7894 20.28V21.28H53.7894V20.28H52.7894ZM49.9894 20.28H48.9894V21.28H49.9894V20.28ZM49.9894 3.92V2.92H48.9894V3.92H49.9894ZM52.7894 3.92H53.7894V2.92H52.7894V3.92ZM58.2294 7.7L57.3497 8.17552L57.3574 8.18982L57.3656 8.20387L58.2294 7.7ZM57.1494 6.58L56.6504 7.44669L56.6616 7.45294L57.1494 6.58ZM54.2694 6.6L54.7684 7.46666L54.7764 7.46193L54.2694 6.6ZM53.1894 7.72L52.3197 7.22639L52.3146 7.23539L52.3097 7.24448L53.1894 7.72ZM53.1894 11.2L52.3097 11.6755L52.3146 11.6846L52.3197 11.6936L53.1894 11.2ZM54.2694 12.34L53.7511 13.1952L53.7662 13.2043L53.7816 13.2129L54.2694 12.34ZM57.1494 12.32L56.6423 11.458L56.6311 11.4648L57.1494 12.32ZM58.2294 11.18L57.3597 10.6864L57.3546 10.6954L57.3497 10.7045L58.2294 11.18ZM53.6046 6.09921C53.8625 5.73616 54.23 5.41363 54.739 5.14287L53.7998 3.37713C53.0555 3.77304 52.4362 4.29051 51.9742 4.94079L53.6046 6.09921ZM54.7457 5.13929C55.2229 4.8808 55.7825 4.74 56.4494 4.74V2.74C55.4896 2.74 54.5959 2.94587 53.7931 3.38071L54.7457 5.13929ZM56.4494 4.74C57.2232 4.74 57.8933 4.92818 58.4861 5.29217L59.5326 3.58783C58.6054 3.01848 57.5689 2.74 56.4494 2.74V4.74ZM58.4927 5.29619C59.0935 5.65873 59.5758 6.17975 59.9377 6.89269L61.721 5.98731C61.203 4.96691 60.4719 4.1546 59.526 3.58381L58.4927 5.29619ZM59.9463 6.90915C60.3106 7.59492 60.5094 8.42194 60.5094 9.42H62.5094C62.5094 8.15139 62.2548 6.99174 61.7125 5.97084L59.9463 6.90915ZM60.5094 9.42C60.5094 10.4172 60.3108 11.263 59.9404 11.982L61.7183 12.898C62.2546 11.857 62.5094 10.6894 62.5094 9.42H60.5094ZM59.9377 11.9873C59.5747 12.7023 59.0893 13.2334 58.482 13.6104L59.5367 15.3096C60.4762 14.7266 61.2041 13.911 61.721 12.8927L59.9377 11.9873ZM58.4754 13.6145C57.8839 13.9881 57.2176 14.18 56.4494 14.18V16.18C57.5745 16.18 58.6149 15.8919 59.5434 15.3055L58.4754 13.6145ZM56.4494 14.18C55.7757 14.18 55.2212 14.043 54.759 13.7971L53.8198 15.5629C54.6109 15.9837 55.4964 16.18 56.4494 16.18V14.18ZM54.7669 13.8014C54.2654 13.5288 53.8777 13.1977 53.5843 12.8133L51.9944 14.0267C52.4744 14.6556 53.0866 15.1645 53.8119 15.5586L54.7669 13.8014ZM51.7894 13.42V20.28H53.7894V13.42H51.7894ZM52.7894 19.28H49.9894V21.28H52.7894V19.28ZM50.9894 20.28V3.92H48.9894V20.28H50.9894ZM49.9894 4.92H52.7894V2.92H49.9894V4.92ZM51.7894 3.92V5.52H53.7894V3.92H51.7894ZM59.6494 9.42C59.6494 8.6117 59.4787 7.85701 59.0932 7.19613L57.3656 8.20387C57.5401 8.50299 57.6494 8.89496 57.6494 9.42H59.6494ZM59.1091 7.22448C58.7597 6.57806 58.2695 6.0604 57.6372 5.70706L56.6616 7.45294C56.9359 7.60627 57.1658 7.83528 57.3497 8.17552L59.1091 7.22448ZM57.6483 5.71338C57.0528 5.37047 56.4001 5.2 55.7094 5.2V7.2C56.0587 7.2 56.366 7.28286 56.6504 7.44662L57.6483 5.71338ZM55.7094 5.2C55.0175 5.2 54.3633 5.3846 53.7624 5.73807L54.7764 7.46193C55.0822 7.28207 55.388 7.2 55.7094 7.2V5.2ZM53.7704 5.73338C53.1582 6.08587 52.6772 6.59651 52.3197 7.22639L54.0591 8.2136C54.2616 7.85682 54.5006 7.6208 54.7683 7.46662L53.7704 5.73338ZM52.3097 7.24448C51.9504 7.90913 51.7894 8.6586 51.7894 9.46H53.7894C53.7894 8.92807 53.895 8.51753 54.0691 8.19552L52.3097 7.24448ZM51.7894 9.46C51.7894 10.2614 51.9504 11.0109 52.3097 11.6755L54.0691 10.7245C53.895 10.4025 53.7894 9.99193 53.7894 9.46H51.7894ZM52.3197 11.6936C52.6752 12.3199 53.1504 12.8311 53.7511 13.1952L54.7877 11.4848C54.5084 11.3155 54.2636 11.0668 54.0591 10.7064L52.3197 11.6936ZM53.7816 13.2129C54.3801 13.5474 55.0275 13.72 55.7094 13.72V11.72C55.3779 11.72 55.0653 11.6392 54.7572 11.4671L53.7816 13.2129ZM55.7094 13.72C56.4101 13.72 57.0696 13.5376 57.6677 13.1752L56.6311 11.4648C56.3491 11.6357 56.0487 11.72 55.7094 11.72V13.72ZM57.6564 13.1819C58.2773 12.8167 58.7617 12.2982 59.1091 11.6555L57.3497 10.7045C57.1637 11.0485 56.9281 11.29 56.6424 11.4581L57.6564 13.1819ZM59.0991 11.6736C59.48 11.0025 59.6494 10.2387 59.6494 9.42H57.6494C57.6494 9.96135 57.5388 10.3709 57.3597 10.6864L59.0991 11.6736ZM63.4841 6.44L62.5979 5.97647L62.5924 5.98731L63.4841 6.44ZM65.3041 4.44L64.7874 3.58379L64.7808 3.58783L65.3041 4.44ZM70.0441 4.24L69.5665 5.11866L69.5744 5.12287L70.0441 4.24ZM71.5441 5.5L70.739 6.0932L72.5441 8.54292V5.5H71.5441ZM71.5441 3.92V2.92H70.5441V3.92H71.5441ZM74.3641 3.92H75.3641V2.92H74.3641V3.92ZM74.3641 15V16H75.3641V15H74.3641ZM71.5441 15H70.5441V16H71.5441V15ZM71.5441 13.38H72.5441V10.1787L70.7219 12.8108L71.5441 13.38ZM70.0441 14.68L70.5137 15.5629L70.5203 15.5593L70.0441 14.68ZM65.3041 14.46L64.7701 15.3055L64.7767 15.3096L65.3041 14.46ZM63.4841 12.44L62.5896 12.8872L62.5937 12.8954L62.598 12.9035L63.4841 12.44ZM71.1441 7.72L70.2643 8.19555L70.2699 8.20564L71.1441 7.72ZM70.0641 6.6L69.557 7.46193L69.5666 7.46754L69.5762 7.47294L70.0641 6.6ZM67.1641 6.58L66.6651 5.71338L66.6651 5.71338L67.1641 6.58ZM66.0841 7.7L65.2143 7.20637L65.2099 7.21436L66.0841 7.7ZM66.0841 11.18L65.1991 11.6457L65.2065 11.6598L65.2144 11.6736L66.0841 11.18ZM67.1641 12.32L66.6457 13.1753L66.657 13.1819L67.1641 12.32ZM70.0641 12.34L70.5519 13.2129L70.5615 13.2075L70.5711 13.2019L70.0641 12.34ZM71.1441 11.22L72.0183 11.7057L72.0238 11.6955L71.1441 11.22ZM63.8241 9.42C63.8241 8.43328 64.0171 7.59912 64.3757 6.89269L62.5924 5.98731C62.071 7.01422 61.8241 8.16672 61.8241 9.42H63.8241ZM64.3702 6.9035C64.7482 6.18081 65.2358 5.65541 65.8273 5.29217L64.7808 3.58783C63.8524 4.15793 63.1266 4.96585 62.598 5.9765L64.3702 6.9035ZM65.8207 5.29619C66.4305 4.92823 67.1103 4.74 67.8841 4.74V2.74C66.7644 2.74 65.7243 3.01844 64.7874 3.58381L65.8207 5.29619ZM67.8841 4.74C68.5747 4.74 69.1246 4.87843 69.5666 5.11862L70.5216 3.36137C69.7369 2.9349 68.8468 2.74 67.8841 2.74V4.74ZM69.5744 5.12287C70.086 5.39498 70.4652 5.72154 70.739 6.0932L72.3491 4.9068C71.8763 4.26513 71.2554 3.75168 70.5137 3.35713L69.5744 5.12287ZM72.5441 5.5V3.92H70.5441V5.5H72.5441ZM71.5441 4.92H74.3641V2.92H71.5441V4.92ZM73.3641 3.92V15H75.3641V3.92H73.3641ZM74.3641 14H71.5441V16H74.3641V14ZM72.5441 15V13.38H70.5441V15H72.5441ZM70.7219 12.8108C70.4638 13.1835 70.0906 13.5175 69.5678 13.8007L70.5203 15.5593C71.2775 15.1492 71.9043 14.6165 72.3663 13.9492L70.7219 12.8108ZM69.5745 13.7971C69.1145 14.0418 68.554 14.18 67.8641 14.18V16.18C68.8274 16.18 69.7203 15.9849 70.5137 15.5629L69.5745 13.7971ZM67.8641 14.18C67.1121 14.18 66.4422 13.9895 65.8314 13.6104L64.7767 15.3096C65.7126 15.8905 66.7494 16.18 67.8641 16.18V14.18ZM65.8381 13.6145C65.24 13.2368 64.7492 12.7012 64.3702 11.9765L62.598 12.9035C63.1255 13.9121 63.8481 14.7232 64.7701 15.3055L65.8381 13.6145ZM64.3785 11.9928C64.0178 11.2713 63.8241 10.4217 63.8241 9.42H61.8241C61.8241 10.6849 62.0704 11.8487 62.5896 12.8872L64.3785 11.9928ZM72.5441 9.46C72.5441 8.65008 72.3849 7.89436 72.0182 7.23436L70.2699 8.20564C70.4366 8.50564 70.5441 8.90992 70.5441 9.46H72.5441ZM72.0238 7.24448C71.6744 6.59806 71.1842 6.0804 70.5519 5.72706L69.5762 7.47294C69.8506 7.62627 70.0804 7.85527 70.2644 8.19552L72.0238 7.24448ZM70.5711 5.73807C69.9659 5.38209 69.3045 5.2 68.6041 5.2V7.2C68.9436 7.2 69.2555 7.28458 69.557 7.46193L70.5711 5.73807ZM68.6041 5.2C67.9134 5.2 67.2607 5.37047 66.6651 5.71338L67.663 7.44662C67.9475 7.28286 68.2548 7.2 68.6041 7.2V5.2ZM66.6651 5.71338C66.0529 6.06587 65.5719 6.57652 65.2144 7.20639L66.9537 8.19361C67.1562 7.83682 67.3952 7.6008 67.663 7.44662L66.6651 5.71338ZM65.2099 7.21436C64.8448 7.87162 64.6841 8.61956 64.6841 9.42H66.6841C66.6841 8.88711 66.79 8.48838 66.9582 8.18564L65.2099 7.21436ZM64.6841 9.42C64.6841 10.2222 64.8453 10.9735 65.1991 11.6457L66.969 10.7143C66.7894 10.3731 66.6841 9.95113 66.6841 9.42H64.6841ZM65.2144 11.6736C65.5698 12.2999 66.0451 12.8111 66.6458 13.1752L67.6824 11.4648C67.4031 11.2955 67.1583 11.0468 66.9537 10.6864L65.2144 11.6736ZM66.657 13.1819C67.2579 13.5354 67.9121 13.72 68.6041 13.72V11.72C68.2826 11.72 67.9769 11.6379 67.6711 11.4581L66.657 13.1819ZM68.6041 13.72C69.2946 13.72 69.9493 13.5497 70.5519 13.2129L69.5762 11.4671C69.2722 11.637 68.9535 11.72 68.6041 11.72V13.72ZM70.5711 13.2019C71.1851 12.8408 71.6689 12.3344 72.0182 11.7056L70.2699 10.7344C70.0859 11.0656 69.8497 11.3059 69.557 11.4781L70.5711 13.2019ZM72.0238 11.6955C72.3845 11.0281 72.5441 10.271 72.5441 9.46H70.5441C70.5441 10.009 70.4369 10.4252 70.2644 10.7445L72.0238 11.6955ZM77.0788 6.46L77.9561 6.93982L77.9592 6.9341L77.0788 6.46ZM79.0188 4.46L79.5104 5.33089L79.5209 5.32479L79.0188 4.46ZM85.2588 4.78L84.6456 5.56999L84.6521 5.57505L84.6588 5.58L85.2588 4.78ZM87.0788 7.66V8.66H88.3562L88.0495 7.41992L87.0788 7.66ZM84.0588 7.66L83.1101 7.97623L83.338 8.66H84.0588V7.66ZM83.2388 6.54L82.6387 7.34L82.6547 7.35193L82.671 7.36321L83.2388 6.54ZM79.9388 7L80.7144 7.63131L80.7214 7.62252L79.9388 7ZM79.9388 11.92L79.1561 12.5426L79.1632 12.5513L79.9388 11.92ZM84.0588 11.26V10.26H83.344L83.1126 10.9363L84.0588 11.26ZM87.0788 11.26L88.0476 11.5076L88.3664 10.26H87.0788V11.26ZM85.2588 14.12L85.8735 14.9087L85.8735 14.9087L85.2588 14.12ZM79.0188 14.48L78.5166 15.3449L78.5272 15.3508L79.0188 14.48ZM77.0788 12.48L76.1983 12.9541L76.2014 12.9598L77.0788 12.48ZM77.3787 9.46C77.3787 8.45095 77.5832 7.62172 77.9561 6.93981L76.2014 5.98019C75.641 7.00495 75.3787 8.17571 75.3787 9.46H77.3787ZM77.9592 6.9341C78.3398 6.22729 78.8544 5.70109 79.5103 5.33082L78.5272 3.58918C77.5297 4.15224 76.751 4.95938 76.1983 5.9859L77.9592 6.9341ZM79.5209 5.32479C80.1779 4.94329 80.9475 4.74 81.8588 4.74V2.74C80.6366 2.74 79.5129 3.01671 78.5166 3.59521L79.5209 5.32479ZM81.8588 4.74C83.0591 4.74 83.9628 5.04004 84.6456 5.56999L85.8719 3.99001C84.768 3.13329 83.4051 2.74 81.8588 2.74V4.74ZM84.6588 5.58C85.3576 6.10413 85.8492 6.85374 86.108 7.90008L88.0495 7.41992C87.6949 5.98626 86.9732 4.81587 85.8588 3.98L84.6588 5.58ZM87.0788 6.66H84.0588V8.66H87.0788V6.66ZM85.0074 7.34377C84.7844 6.6748 84.3859 6.11637 83.8065 5.71679L82.671 7.36321C82.8649 7.49696 83.0131 7.6852 83.1101 7.97623L85.0074 7.34377ZM83.8388 5.74C83.2598 5.3058 82.5706 5.12 81.8388 5.12V7.12C82.2269 7.12 82.471 7.2142 82.6387 7.34L83.8388 5.74ZM81.8388 5.12C80.7576 5.12 79.8267 5.53444 79.1561 6.37748L80.7214 7.62252C80.9841 7.29222 81.3199 7.12 81.8388 7.12V5.12ZM79.1632 6.36873C78.4991 7.18462 78.2388 8.26263 78.2388 9.46H80.2388C80.2388 8.52403 80.4451 7.96204 80.7143 7.63127L79.1632 6.36873ZM78.2388 9.46C78.2388 10.6495 78.5014 11.7195 79.1561 12.5425L80.7214 11.2975C80.4427 10.9472 80.2388 10.3771 80.2388 9.46H78.2388ZM79.1632 12.5513C79.8369 13.379 80.7662 13.78 81.8388 13.78V11.78C81.3113 11.78 80.9739 11.6077 80.7143 11.2887L79.1632 12.5513ZM81.8388 13.78C82.5538 13.78 83.2332 13.6191 83.8087 13.2251C84.389 12.8278 84.7758 12.2535 85.0049 11.5837L83.1126 10.9363C82.9951 11.2799 82.8385 11.4655 82.6788 11.5749C82.5143 11.6875 82.257 11.78 81.8388 11.78V13.78ZM84.0588 12.26H87.0788V10.26H84.0588V12.26ZM86.1099 11.0124C85.8535 12.0155 85.3621 12.7716 84.644 13.3313L85.8735 14.9087C86.9688 14.0551 87.6906 12.9045 88.0476 11.5076L86.1099 11.0124ZM84.644 13.3313C83.9437 13.8771 83.0383 14.18 81.8588 14.18V16.18C83.3992 16.18 84.7605 15.7762 85.8735 14.9087L84.644 13.3313ZM81.8588 14.18C80.9426 14.18 80.1692 13.9811 79.5103 13.6092L78.5272 15.3508C79.5217 15.9122 80.6415 16.18 81.8588 16.18V14.18ZM79.5209 13.6152C78.855 13.2286 78.3368 12.6963 77.9561 12.0002L76.2014 12.9598C76.754 13.9704 77.5292 14.7714 78.5166 15.3448L79.5209 13.6152ZM77.9592 12.0059C77.5831 11.3073 77.3787 10.4686 77.3787 9.46H75.3787C75.3787 10.7447 75.6411 11.9194 76.1983 12.9541L77.9592 12.0059ZM99.35 10.3V11.3H100.197L100.336 10.4644L99.35 10.3ZM91.25 10.3V9.3H90.1632L90.2535 10.383L91.25 10.3ZM92.09 12.18L91.4134 12.9163L91.4134 12.9163L92.09 12.18ZM96.13 11.52V10.52H95.5078L95.2329 11.0781L96.13 11.52ZM99.15 11.52L100.108 11.8073L100.494 10.52H99.15V11.52ZM97.31 14.16L97.91 14.96L97.9175 14.9544L97.31 14.16ZM91.09 14.48L90.5939 15.3482L90.602 15.3529L90.6102 15.3574L91.09 14.48ZM89.11 12.46L88.2295 12.9341L88.2352 12.9445L89.11 12.46ZM89.11 6.44L88.2295 5.9659L88.2295 5.9659L89.11 6.44ZM91.07 4.44L91.5556 5.31416L91.5556 5.31416L91.07 4.44ZM96.79 4.42L96.3092 5.29683L96.3151 5.30002L96.79 4.42ZM98.73 6.36L97.85 6.83493L97.8545 6.84331L97.8592 6.85159L98.73 6.36ZM96.53 8.42V9.42H97.5487L97.5298 8.40148L96.53 8.42ZM95.75 6.7L95.0943 7.45503L95.1001 7.46002L95.1059 7.46491L95.75 6.7ZM92.13 6.68L92.793 7.42859L92.7944 7.42741L92.13 6.68ZM91.27 8.42L90.2801 8.27858L90.117 9.42H91.27V8.42ZM98.43 9.22C98.43 9.57707 98.4061 9.88073 98.3636 10.1356L100.336 10.4644C100.401 10.0793 100.43 9.66293 100.43 9.22H98.43ZM99.35 9.3H91.25V11.3H99.35V9.3ZM90.2535 10.383C90.3366 11.3808 90.6998 12.2606 91.4134 12.9163L92.7666 11.4437C92.4936 11.1928 92.2967 10.8192 92.2465 10.217L90.2535 10.383ZM91.4134 12.9163C92.1057 13.5526 92.9598 13.86 93.91 13.86V11.86C93.4202 11.86 93.0609 11.7141 92.7666 11.4437L91.4134 12.9163ZM93.91 13.86C94.575 13.86 95.2068 13.7161 95.7618 13.3811C96.3193 13.0446 96.7357 12.5534 97.0271 11.9618L95.2329 11.0781C95.0843 11.3799 94.9107 11.5587 94.7282 11.6689C94.5432 11.7806 94.285 11.86 93.91 11.86V13.86ZM96.13 12.52H99.15V10.52H96.13V12.52ZM98.1922 11.2327C97.9343 12.0923 97.4464 12.7968 96.7026 13.3656L97.9175 14.9544C98.9869 14.1365 99.7257 13.081 100.108 11.8073L98.1922 11.2327ZM96.71 13.36C96.0039 13.8896 95.1106 14.18 93.97 14.18V16.18C95.4694 16.18 96.8028 15.7904 97.91 14.96L96.71 13.36ZM93.97 14.18C93.0544 14.18 92.2621 13.9812 91.5698 13.6026L90.6102 15.3574C91.6246 15.9121 92.7522 16.18 93.97 16.18V14.18ZM91.5861 13.6118C90.9091 13.2249 90.3783 12.686 89.9848 11.9755L88.2352 12.9445C88.8017 13.9673 89.5909 14.7751 90.5939 15.3482L91.5861 13.6118ZM89.9905 11.9859C89.6134 11.2857 89.41 10.4531 89.41 9.46H87.41C87.41 10.7336 87.6732 11.901 88.2295 12.9341L89.9905 11.9859ZM89.41 9.46C89.41 8.45141 89.6143 7.61269 89.9905 6.9141L88.2295 5.9659C87.6724 7.00064 87.41 8.17526 87.41 9.46H89.41ZM89.9905 6.9141C90.3688 6.21146 90.887 5.6856 91.5556 5.31416L90.5844 3.56584C89.573 4.12773 88.7845 4.93521 88.2295 5.9659L89.9905 6.9141ZM91.5556 5.31416C92.2276 4.94083 93.0229 4.74 93.97 4.74V2.74C92.7305 2.74 91.5924 3.00583 90.5844 3.56584L91.5556 5.31416ZM93.97 4.74C94.8753 4.74 95.6465 4.93343 96.3092 5.29681L97.2708 3.54319C96.2801 2.99991 95.1714 2.74 93.97 2.74V4.74ZM96.3151 5.30002C96.9834 5.66072 97.4893 6.16658 97.85 6.83493L99.61 5.88507C99.0641 4.87342 98.2766 4.08594 97.2649 3.53998L96.3151 5.30002ZM97.8592 6.85159C98.2301 7.5086 98.43 8.28817 98.43 9.22H100.43C100.43 7.99183 100.163 6.86474 99.6008 5.86841L97.8592 6.85159ZM97.5298 8.40148C97.5117 7.42136 97.1423 6.5651 96.3941 5.93509L95.1059 7.46491C95.3711 7.68823 95.5217 7.97864 95.5302 8.43851L97.5298 8.40148ZM96.4057 5.94497C95.6997 5.33187 94.8402 5.04 93.89 5.04V7.04C94.4065 7.04 94.787 7.18813 95.0943 7.45503L96.4057 5.94497ZM93.89 5.04C92.9729 5.04 92.1439 5.32969 91.4656 5.93259L92.7944 7.42741C93.0761 7.17698 93.4204 7.04 93.89 7.04V5.04ZM91.467 5.93141C90.7875 6.53325 90.4129 7.34852 90.2801 8.27858L92.2599 8.56142C92.3404 7.99815 92.5392 7.65342 92.793 7.42859L91.467 5.93141ZM91.27 9.42H96.53V7.42H91.27V9.42Z" fill="#2F0045"/>
</svg>
